<?xml version="1.0" encoding="UTF-8" standalone="no"?>
<!-- Created with Inkscape (http://www.inkscape.org/) -->

<svg
   width="2119.4182"
   height="1442.6182"
   viewBox="0 0 560.76274 381.69272"
   version="1.1"
   id="svg5"
   inkscape:version="1.3.2 (1:1.3.2+202311252150+091e20ef0f)"
   sodipodi:docname="Murerplan.svg"
   xml:space="preserve"
   xmlns:inkscape="http://www.inkscape.org/namespaces/inkscape"
   xmlns:sodipodi="http://sodipodi.sourceforge.net/DTD/sodipodi-0.dtd"
   xmlns:xlink="http://www.w3.org/1999/xlink"
   xmlns="http://www.w3.org/2000/svg"
   xmlns:svg="http://www.w3.org/2000/svg"><script
     xlink:href="js/link_things.js"
     id="script1" /><sodipodi:namedview
     id="namedview7"
     pagecolor="#ffffff"
     bordercolor="#666666"
     borderopacity="1.0"
     inkscape:showpageshadow="2"
     inkscape:pageopacity="0.0"
     inkscape:pagecheckerboard="false"
     inkscape:deskcolor="#d1d1d1"
     inkscape:document-units="px"
     showgrid="false"
     showborder="true"
     shape-rendering="auto"
     inkscape:zoom="0.79369582"
     inkscape:cx="1059.5999"
     inkscape:cy="721.30907"
     inkscape:window-width="1920"
     inkscape:window-height="1054"
     inkscape:window-x="0"
     inkscape:window-y="0"
     inkscape:window-maximized="1"
     inkscape:current-layer="layer1" /><defs
     id="defs2" /><g
     inkscape:label="murerplan"
     inkscape:groupmode="layer"
     id="layer1"
     transform="translate(25.865353,48.009201)"><image
       width="560.76271"
       height="381.69272"
       preserveAspectRatio="none"
       xlink:href="https://upload.wikimedia.org/wikipedia/commons/a/a2/Murerplan_Zuerich.jpg"
       id="image1"
       x="-25.894262"
       y="-48.009201" /></g><g
     inkscape:groupmode="layer"
     id="things"
     inkscape:label="things"><path
       style="font-variation-settings:normal;vector-effect:none;fill:#ff0000;fill-opacity:1;stroke:none;stroke-width:0.264583px;stroke-linecap:butt;stroke-linejoin:miter;stroke-miterlimit:4;stroke-dasharray:none;stroke-dashoffset:0;stroke-opacity:1;-inkscape-stroke:none;stop-color:#000000"
       d="m 422.4742,305.28498 -0.31094,-5.69835 -0.62878,-1.81888 -0.24143,-18.00992 -3.0294,-13.99379 -4.52575,16.48357 -4.45376,-15.82579 -3.33365,14.00061 -0.24555,17.46885 2.67906,8.10797 z"
       id="fraumunster"
       onclick="" /><path
       style="font-variation-settings:normal;opacity:1;vector-effect:none;fill:#ff0000;fill-opacity:1;stroke:none;stroke-width:0.264583px;stroke-linecap:butt;stroke-linejoin:miter;stroke-miterlimit:4;stroke-dasharray:none;stroke-dashoffset:0;stroke-opacity:1;-inkscape-stroke:none;stop-color:#000000;stop-opacity:1"
       d="m 361.47983,207.57814 c 0.0399,-0.13945 13.78619,4.30309 13.78619,4.30309 0,0 9.76853,-5.34566 9.69548,-5.35894 -0.0731,-0.0133 1.10902,-1.66678 1.30823,-1.84608 0.19923,-0.1793 1.9391,-0.425 1.9391,-0.425 0,0 -0.27889,-3.24725 -0.0198,-2.80233 0.25897,0.44492 3.0149,-2.94841 2.902,-2.92185 -0.1129,0.0266 3.10124,-4.69489 2.79575,-4.30974 -0.30546,0.38516 0.87659,-7.01908 0.42502,-7.2183 -0.45159,-0.19922 0.87657,7.19174 0.87657,7.19174 0,0 2.39731,5.77731 2.6231,5.95661 0.22577,0.17929 1.83285,0.59099 1.8727,0.39178 0.0398,-0.19921 0.11951,-5.02691 0.11951,-5.02691 0,0 -3.10785,-1.85272 -2.92857,-1.87929 0.17931,-0.0266 0.48477,-8.93821 0.33867,-8.37377 -0.14608,0.56445 0.92308,-1.31483 0.92308,-1.31483 0,0 -3.51959,-4.5488 -3.32036,-4.3031 0.1992,0.24571 0.14607,0.21915 -0.35198,-0.0797 -0.49805,-0.29883 -0.57774,-13.22804 -0.5379,-13.40733 0.0399,-0.1793 -2.17815,13.65966 -2.15159,13.82568 0.0266,0.16602 -11.86701,1.26836 -11.0967,1.14883 0.77033,-0.11954 -0.55118,-10.99016 -0.38516,-10.7511 0.16603,0.23906 -0.12615,1.44764 -0.0863,1.46092 0.0399,0.0133 -3.16764,-31.63571 -2.88208,-31.5361 0.28557,0.0996 -4.10398,29.2451 -3.98444,29.53065 0.11954,0.28555 -0.59767,7.86244 -0.59767,7.86244 0,0 -2.38402,6.28863 -2.40395,6.48121 -0.0198,0.19258 -0.21251,-6.58081 -0.0266,-6.4148 0.18595,0.16602 0.15274,-9.06439 -0.0132,-9.22376 -0.16603,-0.15938 -1.09572,2.15818 -1.09572,2.15818 0,0 -2.09849,-31.14431 -2.15826,-31.14431 -0.0597,0 -3.65903,32.924 -3.752,32.95719 -0.093,0.0332 -0.29221,-3.65232 -0.33205,-3.65232 -0.0399,0 -1.09572,8.87182 -1.15549,8.87182 -0.0598,0 -0.12618,29.99548 -0.32539,29.8494 z"
       id="grossmunster"
       onclick="" /></g></svg>
